<?xml version="1.0" encoding="utf-8"?>
<!-- Generator: Adobe Illustrator 19.0.0, SVG Export Plug-In . SVG Version: 6.00 Build 0)  -->
<svg version="1.1" id="Layer_1" xmlns="http://www.w3.org/2000/svg" xmlns:xlink="http://www.w3.org/1999/xlink" x="0px" y="0px"
	 viewBox="0 0 479 92.3" style="enable-background:new 0 0 479 92.3;" xml:space="preserve">
<style type="text/css">
	.st0{fill:#FFFFFF;}
	.st1{fill:none;}
	.st2{fill:#38A4DD;}
	.st3{font-family: 'Roboto', sans-serif;font-weight: 400}
	.st4{font-size:65px;}
	.st5{fill:#F7901E;}
	.st6{font-size:23px;}
</style>
<rect id="XMLID_57_" x="-841.5" y="640.5" class="st1" width="144.5" height="17.3"/>
<text id="XMLID_3145_" transform="matrix(1 0 0 1 -746.1475 656.5032)" class="st3" style="opacity:0.87;fill:#FFFFFF; font-size:16px;">Values</text>
<rect id="XMLID_55_" x="-828.7" y="675.1" class="st1" width="131.7" height="17.3"/>
<text id="XMLID_3143_" transform="matrix(1 0 0 1 -781.2563 691.1072)" class="st3" style="opacity:0.87;fill:#FFFFFF; font-size:16px;">Parameters</text>
<rect id="XMLID_53_" x="-828.7" y="709.7" class="st1" width="131.7" height="17.3"/>
<text id="XMLID_3141_" transform="matrix(1 0 0 1 -777.3931 725.7113)" class="st3" style="opacity:0.87;fill:#FFFFFF; font-size:16px;">Economics</text>
<rect id="XMLID_51_" x="-828.7" y="742.5" class="st1" width="131.7" height="17.3"/>
<text id="XMLID_3139_" transform="matrix(1 0 0 1 -730.6401 758.5465)" class="st3" style="opacity:0.87;fill:#FFFFFF; font-size:16px;">Data</text>
<rect id="XMLID_49_" x="-828.7" y="777.2" class="st1" width="131.7" height="17.3"/>
<text id="XMLID_3137_" transform="matrix(1 0 0 1 -731.0112 793.1505)" class="st3" style="opacity:0.87;fill:#FFFFFF; font-size:16px;">Files</text>
<path id="XMLID_3136_" class="st0" d="M-791.2,629.1l-1.4-1.4l-6,6l6,6l1.4-1.4l-4.6-4.6L-791.2,629.1z"/>
<path id="XMLID_3135_" class="st0" d="M-678.7,655.9l1.4,1.4l6-6l-6-6l-1.4,1.4l4.6,4.6L-678.7,655.9z"/>
<path id="XMLID_3134_" class="st0" d="M-678.7,690.2l1.4,1.4l6-6l-6-6l-1.4,1.4l4.6,4.6L-678.7,690.2z"/>
<path id="XMLID_3133_" class="st0" d="M-678.7,726l1.4,1.4l6-6l-6-6l-1.4,1.4l4.6,4.6L-678.7,726z"/>
<path id="XMLID_3132_" class="st0" d="M-678.7,759.4l1.4,1.4l6-6l-6-6l-1.4,1.4l4.6,4.6L-678.7,759.4z"/>
<path id="XMLID_3131_" class="st0" d="M-678.7,793.6l1.4,1.4l6-6l-6-6l-1.4,1.4l4.6,4.6L-678.7,793.6z"/>
<rect id="XMLID_36_" x="-697" y="641.8" class="st1" width="131.7" height="17.3"/>
<text id="XMLID_3107_" transform="matrix(1 0 0 1 -631.8062 657.792)" class="st3" style="opacity:0.87;fill:#FFFFFF; font-size:16px;">Analytics</text>
<rect id="XMLID_34_" x="-697" y="676.4" class="st1" width="131.7" height="17.3"/>
<text id="XMLID_3085_" transform="matrix(1 0 0 1 -620.4551 692.396)" class="st3" style="opacity:0.87;fill:#FFFFFF; font-size:16px;">Actions</text>
<rect id="XMLID_32_" x="-697" y="711" class="st1" width="131.7" height="17.3"/>
<text id="XMLID_3083_" transform="matrix(1 0 0 1 -639.8418 727.0001)" class="st3" style="opacity:0.87;fill:#FFFFFF; font-size:16px;">Messages</text>
<rect id="XMLID_29_" x="-697" y="743.8" class="st1" width="131.7" height="17.3"/>
<text id="XMLID_3081_" transform="matrix(1 0 0 1 -608.4946 759.8353)" class="st3" style="opacity:0.87;fill:#FFFFFF; font-size:16px;">Notes</text>
<rect id="XMLID_28_" x="-697" y="778.4" class="st1" width="131.7" height="17.3"/>
<text id="XMLID_3070_" transform="matrix(1 0 0 1 -628.0796 794.4393)" class="st3" style="opacity:0.87;fill:#FFFFFF; font-size:16px;">Portfolio</text>
<path id="XMLID_3058_" class="st0" d="M-547.1,657.2l1.4,1.4l6-6l-6-6l-1.4,1.4l4.6,4.6L-547.1,657.2z"/>
<path id="XMLID_2654_" class="st0" d="M-547.1,691.5l1.4,1.4l6-6l-6-6l-1.4,1.4l4.6,4.6L-547.1,691.5z"/>
<path id="XMLID_2653_" class="st0" d="M-547.1,727.3l1.4,1.4l6-6l-6-6l-1.4,1.4l4.6,4.6L-547.1,727.3z"/>
<path id="XMLID_2644_" class="st0" d="M-547.1,760.7l1.4,1.4l6-6l-6-6l-1.4,1.4l4.6,4.6L-547.1,760.7z"/>
<path id="XMLID_2643_" class="st0" d="M-547.1,794.9l1.4,1.4l6-6l-6-6l-1.4,1.4l4.6,4.6L-547.1,794.9z"/>
<rect id="XMLID_27_" x="-785.2" y="624.1" class="st1" width="61.2" height="17.3"/>
<text id="XMLID_3168_" transform="matrix(1 0 0 1 -785.2231 640.0693)" class="st3" style="opacity:0.87;fill:#FFFFFF; font-size:16px;">Main</text>
<rect id="XMLID_30_" x="-9.9" y="-173.3" class="st1" width="218.7" height="83.6"/>
<text id="XMLID_31_" transform="matrix(1 0 0 1 -9.8647 -113.2803)" class="st2 st3 st4">VOLOS</text>
<rect id="XMLID_33_" x="205.5" y="-162.3" class="st1" width="325" height="100.7"/>
<text id="XMLID_35_" transform="matrix(1 0 0 1 205.4998 -145.0835)"><tspan x="0" y="0" class="st5 st3 st6">The Best Option for Expressing </tspan><tspan x="0" y="27.6" class="st5 st3 st6">your Investment Ideas</tspan></text>
<rect id="XMLID_40_" x="32.1" y="12.7" class="st1" width="218.7" height="79.6"/>
<text id="XMLID_39_" transform="matrix(1 0 0 1 32.1353 72.7197)" class="st2 st3 st4">VOLOS</text>
<rect id="XMLID_38_" x="241.5" y="25.7" class="st1" width="209.5" height="66.7"/>
<text id="XMLID_37_" transform="matrix(1 0 0 1 241.4998 42.9165)"><tspan x="0" y="0" class="st5 st3 st6">Unleash the Power </tspan><tspan x="0" y="27.6" class="st5 st3 st6">of Options Investing</tspan></text>
</svg>
