<?xml version="1.0" encoding="utf-8"?>
<!-- Generator: Adobe Illustrator 19.1.1, SVG Export Plug-In . SVG Version: 6.00 Build 0)  -->
<svg version="1.1" id="Layer_1" xmlns="http://www.w3.org/2000/svg" xmlns:xlink="http://www.w3.org/1999/xlink" x="0px" y="0px"
	 viewBox="0 50 200 150" style="enable-background:new 0 0 200 200;" xml:space="preserve">
<style type="text/css">
	.st0{fill:#757576;stroke:#000000;stroke-miterlimit:10;}
	.st1{fill:#38A4DD;}
	.st2{fill:#FAFBFB;}
	.st3{fill:#FFFFFF;}
	.st4{fill:#EEEEEE;}
	.st5{fill:#F5F5F5;}
	.st6{fill:none;stroke:#FAFBFB;stroke-width:3;stroke-miterlimit:10;}
	.st7{fill:none;stroke:#FFFFFF;stroke-width:4;stroke-miterlimit:10;}
	.st8{opacity:7.000000e-002;}
	.st9{fill:none;stroke:#000000;stroke-miterlimit:10;}
	.st10{fill:#F7901E;}
	.st11{fill:#C489BC;stroke:#BDBDBD;stroke-width:4;stroke-miterlimit:10;}
	.st12{fill:#434343;stroke:#434343;stroke-width:3;stroke-miterlimit:10;}
	.st13{fill:none;stroke:#BDBDBD;stroke-width:6;stroke-miterlimit:10;}
	.st14{fill:#E2F4FD;}
	.st15{fill:#434343;}
	.st16{stroke:#0297A7;stroke-miterlimit:10;}
	.st17{fill:none;stroke:#000000;stroke-width:3;stroke-miterlimit:10;}
	.st18{stroke:#000000;stroke-miterlimit:10;}
	.st19{fill:#FFFFFF;stroke:#000000;stroke-miterlimit:10;}
	.st20{fill:#E1F2F1;stroke:#000000;stroke-miterlimit:10;}
	.st21{fill:none;}
	.st22{opacity:4.000000e-002;}
	.st23{fill:url(#XMLID_108_);}
	.st24{opacity:0.8;}
	.st25{fill:url(#XMLID_109_);}
	.st26{opacity:0.87;}
	.st27{fill:url(#XMLID_110_);}
	.st28{fill:url(#XMLID_115_);}
	.st29{fill:none;stroke:#FFFFFF;stroke-width:2;stroke-miterlimit:10;}
	.st30{fill:none;stroke:#FFFFFF;stroke-width:3;stroke-miterlimit:10;}
	.st31{fill:none;stroke:#FFFFFF;stroke-miterlimit:10;}
	.st32{fill:#80CBC4;stroke:#BDBDBD;stroke-width:4;stroke-miterlimit:10;}
	.st33{fill:#F7901E;stroke:#434343;stroke-miterlimit:10;}
	.st34{stroke:#BDBDBD;stroke-width:4;stroke-miterlimit:10;}
	.st35{fill:none;stroke:#434343;stroke-width:3;stroke-miterlimit:10;}
	.st36{fill:none;stroke:#434343;stroke-width:3.25;stroke-miterlimit:10;}
	.st37{fill:#FFFFFF;stroke:#FFFFFF;stroke-miterlimit:10;}
	.st38{fill:#333333;stroke:#F3F3F3;stroke-miterlimit:10;}
	.st39{fill:none;stroke:#434343;stroke-miterlimit:10;}
	.st40{fill:#434343;stroke:#434343;stroke-miterlimit:10;}
	.st41{fill:none;stroke:#F7941E;stroke-width:4;stroke-miterlimit:10;}
	.st42{fill:none;stroke:#F8981D;stroke-width:4;stroke-miterlimit:10;}
	.st43{fill:#FFFFFF;stroke:#FFFFFF;stroke-width:3;stroke-miterlimit:10;}
	.st44{stroke:#FFFFFF;stroke-miterlimit:10;}
	.st45{fill:none;stroke:#38A4DD;stroke-width:4;stroke-miterlimit:10;}
	.st46{fill:none;stroke:#000000;stroke-width:4;stroke-miterlimit:10;}
</style>
<path id="XMLID_3602_" class="st37" d="M184.8,132H15.2c12-1.9,22.3-13.1,29.8-22.6c7.5-9.6,12.7-20.7,18.2-31.6
	c2.2-4.3,5.7-7.6,10.3-9.1c3.5-1.1,5.9-0.9,7.7-0.3c0.5,0.2,2.3,0.8,4.1,2.6c6.9,6.8,7.5,23.6,10.8,28.9c1,1.7,2.4,2.9,2.4,2.9
	c1.1,0.9,2.5,1.7,3.4,2c3.9,1.1,9-4.8,13.1-9.7c3.8-4.4,4.4-6.1,7.5-8c1.2-0.8,4.1-2.5,7.6-2.6c7.4-0.3,13.1,6.6,17.4,11.6
	c4.2,5,6.5,9.5,7.2,10.7C158.5,114,166.4,123.2,184.8,132z"/>
</svg>
